<svg width="50" height="50" viewBox="0 0 200 200" fill="none" xmlns="http://www.w3.org/2000/svg">
<path d="M10.5469 0L27.8381 180.273L100.682 200L172.496 180.273L189.787 0H10.5469Z" fill="#FD982C"/>
<path d="M100.682 0V200L172.496 180.273L189.787 0H100.682Z" fill="#FA502E"/>
<path d="M153.973 62.2574L77.4658 62.2559L78.746 76.2513H153.61L147.56 154.451L100.618 168.105L50.2335 152.434V120.721H81.5323V130.167L100.624 136.066L118.713 130.162L120.03 106.747H50.7187L42.894 32.1519H153.973V62.2574Z" fill="white"/>
<path d="M100.682 32.1519H153.973V62.2574H100.682V32.1519Z" fill="#DEECF1"/>
<path d="M120.03 106.747L118.713 130.162L100.682 136.047V168.086L147.56 154.451L153.61 76.2512H100.682V106.747H120.03Z" fill="#DEECF1"/>
</svg>
