<svg width="87" height="100" viewBox="0 0 87 100" fill="none" xmlns="http://www.w3.org/2000/svg">
<path d="M55.8717 46.4858V91.0857C55.8717 93.5382 54.8927 95.7671 53.3156 97.3823C51.7384 98.9974 49.562 100 47.1672 100H14.0149C11.6201 100 9.44367 98.9974 7.86651 97.3823C6.28942 95.7671 5.31037 93.5382 5.31037 91.0857V69.6693H7.34472V91.0857C7.34472 92.9631 8.0955 94.6707 9.30483 95.9093C10.5142 97.1477 12.1817 97.9166 14.0149 97.9166H47.1672C49.0005 97.9166 50.6679 97.1478 51.8773 95.9093C53.0866 94.6707 53.8374 92.9631 53.8374 91.0857V46.4858H55.8717ZM5.31033 33.3029V8.91431C5.31033 6.46176 6.28937 4.2329 7.86647 2.61773C9.44363 1.00264 11.6201 0 14.0149 0H47.1671C49.562 0 51.7384 1.00263 53.3156 2.61773C54.8927 4.2329 55.8717 6.46176 55.8717 8.91431V31.1051H53.8374V8.91431C53.8374 7.03686 53.0866 5.32926 51.8772 4.09071C50.6679 2.85225 49.0004 2.08337 47.1671 2.08337H14.0149C12.1816 2.08337 10.5142 2.85224 9.30479 4.09071C8.09547 5.32925 7.34469 7.03686 7.34469 8.91431V33.3029H5.31033Z" fill="#03DAC6"/>
<path d="M54.8547 87.4234H6.32767V85.34H54.8547V87.4234Z" fill="#03DAC6"/>
<path d="M54.8547 12.4165H6.32767V10.3331H54.8547V12.4165Z" fill="#03DAC6"/>
<path d="M30.5907 94.5001C31.5857 94.5001 32.3924 93.674 32.3924 92.655C32.3924 91.636 31.5857 90.8099 30.5907 90.8099C29.5956 90.8099 28.789 91.636 28.789 92.655C28.789 93.674 29.5956 94.5001 30.5907 94.5001Z" fill="#03DAC6"/>
<path d="M36.9324 7.82746C37.4941 7.82746 37.9495 7.36101 37.9495 6.78577C37.9495 6.21052 37.4941 5.74408 36.9324 5.74408H24.248C23.6863 5.74408 23.2308 6.21052 23.2308 6.78577C23.2308 7.36102 23.6863 7.82746 24.248 7.82746H36.9324Z" fill="#03DAC6"/>
<path d="M17.8773 7.59541C18.4199 7.59541 18.8598 7.14494 18.8598 6.58927C18.8598 6.03359 18.4199 5.58313 17.8773 5.58313C17.3347 5.58313 16.8949 6.03359 16.8949 6.58927C16.8949 7.14494 17.3347 7.59541 17.8773 7.59541Z" fill="#03DAC6"/>
<path d="M6.32721 32.2609C8.03082 32.2609 9.58539 32.8457 10.7216 33.791C11.9157 34.7846 12.6543 36.1732 12.6543 37.7209C12.6543 39.2686 11.9157 40.6572 10.7216 41.6508C9.58537 42.5962 8.03067 43.181 6.32721 43.181C4.6236 43.181 3.06895 42.5962 1.93278 41.6508C0.738699 40.6572 0 39.2686 0 37.7209C0 36.1732 0.738689 34.7846 1.93278 33.791C3.06897 32.8457 4.62362 32.2609 6.32721 32.2609ZM9.44228 35.4023C8.65673 34.7487 7.55621 34.3443 6.32721 34.3443C5.09822 34.3443 3.99761 34.7487 3.21207 35.4023C2.48449 36.0077 2.03435 36.8285 2.03435 37.7209C2.03435 38.6134 2.48449 39.4341 3.21207 40.0395C3.99768 40.6932 5.09821 41.0976 6.32721 41.0976C7.55613 41.0976 8.65666 40.6932 9.44228 40.0395C10.1699 39.4341 10.62 38.6134 10.62 37.7209C10.62 36.8286 10.1699 36.0077 9.44228 35.4023Z" fill="#03DAC6"/>
<path d="M6.32721 41.4376C8.03067 41.4376 9.58539 42.0224 10.7216 42.9678C11.9156 43.9614 12.6543 45.3499 12.6543 46.8977C12.6543 48.4454 11.9157 49.834 10.7216 50.8275C9.58537 51.7729 8.0308 52.3577 6.32721 52.3577C4.6236 52.3577 3.06895 51.7729 1.93278 50.8275C0.738699 49.834 0 48.4454 0 46.8977C0 45.3499 0.738689 43.9614 1.93278 42.9678C3.06897 42.0224 4.62362 41.4376 6.32721 41.4376ZM9.44228 44.5791C8.65666 43.9254 7.55614 43.521 6.32721 43.521C5.09822 43.521 3.99768 43.9254 3.21207 44.5791C2.48449 45.1845 2.03435 46.0052 2.03435 46.8977C2.03435 47.7901 2.48449 48.6109 3.21207 49.2163C3.99761 49.8699 5.09821 50.2743 6.32721 50.2743C7.5562 50.2743 8.65673 49.8699 9.44228 49.2163C10.1699 48.6109 10.62 47.7901 10.62 46.8977C10.62 46.0053 10.1699 45.1845 9.44228 44.5791Z" fill="#03DAC6"/>
<path d="M6.32721 50.6144C8.03082 50.6144 9.58539 51.1992 10.7216 52.1446C11.9157 53.1381 12.6543 54.5267 12.6543 56.0744C12.6543 57.6222 11.9157 59.0107 10.7216 60.0043C9.58537 60.9496 8.0308 61.5344 6.32721 61.5344C4.6236 61.5344 3.06895 60.9496 1.93278 60.0043C0.738699 59.0107 0 57.6222 0 56.0744C0 54.5267 0.738613 53.1382 1.93278 52.1445C3.06897 51.1992 4.62362 50.6144 6.32721 50.6144ZM9.44228 53.7558C8.65666 53.1022 7.55621 52.6978 6.32721 52.6978C5.09822 52.6978 3.99761 53.1022 3.21207 53.7558C2.48442 54.3612 2.03435 55.182 2.03435 56.0744C2.03435 56.9669 2.48449 57.7877 3.21207 58.3931C3.99761 59.0467 5.09821 59.451 6.32721 59.451C7.5562 59.451 8.65673 59.0467 9.44228 58.3931C10.1699 57.7877 10.62 56.9668 10.62 56.0744C10.62 55.1821 10.1699 54.3612 9.44228 53.7558Z" fill="#03DAC6"/>
<path d="M6.32721 59.7911C8.03082 59.7911 9.58539 60.3759 10.7216 61.3212C11.9157 62.3148 12.6543 63.7033 12.6543 65.2511C12.6543 66.7988 11.9157 68.1874 10.7216 69.1809C9.58537 70.1263 8.03067 70.7111 6.32721 70.7111C4.6236 70.7111 3.06895 70.1263 1.93278 69.1809C0.738699 68.1874 0 66.7988 0 65.2511C0 63.7033 0.738689 62.3148 1.93278 61.3212C3.06897 60.3759 4.62362 59.7911 6.32721 59.7911ZM9.44228 62.9325C8.65673 62.2789 7.55621 61.8745 6.32721 61.8745C5.09822 61.8745 3.99761 62.2789 3.21207 62.9325C2.48449 63.5378 2.03435 64.3586 2.03435 65.2511C2.03435 66.1435 2.48449 66.9643 3.21207 67.5697C3.99768 68.2233 5.09821 68.6277 6.32721 68.6277C7.55613 68.6277 8.65666 68.2233 9.44228 67.5697C10.1699 66.9643 10.62 66.1435 10.62 65.2511C10.62 64.3587 10.1699 63.5379 9.44228 62.9325Z" fill="#03DAC6"/>
<path d="M75.0682 41.5117L83.2822 43.5696C84.5814 43.895 85.6323 44.7347 86.2785 45.8253C86.9241 46.9146 87.1663 48.2545 86.8494 49.5817L81.3693 72.5233C81.0513 73.8538 80.2315 74.9301 79.1666 75.5919C78.1028 76.253 76.7945 76.501 75.4986 76.1764L67.2845 74.1187C65.9853 73.7933 64.9344 72.9535 64.2881 71.8629C63.6425 70.7735 63.4002 69.4336 63.7173 68.1065L69.1975 45.1648C69.5152 43.8343 70.3352 42.7581 71.4001 42.0962C72.4638 41.4351 73.7722 41.187 75.0682 41.5116V41.5117ZM82.8054 45.5877L74.5914 43.5299C73.8338 43.3402 73.0696 43.4848 72.449 43.8705C71.8295 44.2555 71.3526 44.8808 71.1682 45.6532L65.688 68.5949C65.5027 69.3707 65.6439 70.1533 66.0205 70.7888C66.3965 71.4233 67.0072 71.9117 67.7613 72.1006L75.9754 74.1584C76.7329 74.3481 77.497 74.2036 78.1176 73.8179C78.7371 73.4329 79.2141 72.8075 79.3986 72.0351L84.8787 49.0936C85.064 48.3178 84.9228 47.5351 84.5462 46.8996C84.1702 46.2651 83.5596 45.7768 82.8054 45.5879V45.5877Z" fill="#03DAC6"/>
<path d="M54.8664 69.6153C54.8905 69.6156 63.3156 69.7879 64.3848 65.3117L66.3555 65.8C64.8972 71.9048 54.8713 71.691 54.8425 71.6906L54.8664 69.6153H54.8664Z" fill="#03DAC6"/>
<path d="M69.3721 46.0359C69.3292 45.9778 54.4521 25.6824 47.9827 33.1583C47.3667 33.8701 47.2267 34.6327 47.391 35.3988C47.5827 36.2927 48.1615 37.2349 48.9095 38.1473C50.0217 39.5041 51.5953 41.1051 52.9293 42.4624C53.5355 43.0791 54.0909 43.6443 54.6256 44.2168C54.966 44.5813 55.2667 45.0702 55.4948 45.5275C55.9065 46.3527 56.0437 47.3369 55.8875 47.632L54.0996 46.6391C54.1768 46.4933 53.8268 46.7438 53.691 46.4715C53.5364 46.1615 53.3488 45.8475 53.1634 45.649C52.7852 45.2442 52.1707 44.6189 51.4989 43.9354C50.1269 42.5395 48.5086 40.8928 47.3519 39.4819C46.4131 38.3366 45.6756 37.1031 45.4044 35.8381C45.1057 34.4453 45.3559 33.0644 46.4649 31.7829C54.5958 22.3872 70.9461 44.7188 70.9932 44.7827L69.3721 46.0359L69.3721 46.0359Z" fill="#03DAC6"/>
</svg>
