<svg width="41" height="50" viewBox="0 0 162 200" fill="none" xmlns="http://www.w3.org/2000/svg">
<g clip-path="url(#clip0)">
<path d="M157.743 118.756L157.018 120.631C144.701 144.616 122.876 159.333 91.7423 159.982C77.1888 160.282 63.3214 156.547 54.2634 152.487C34.7118 143.704 18.2712 127.413 9.28905 110.012C-3.59073 85.0634 -5.9152 50.3587 20.869 24.4369C21.2817 24.4369 17.6204 30.0593 18.0331 30.0593L17.2959 32.4579C-2.00347 92.8834 57.4626 144.667 115.266 138.745C129.158 137.32 146.873 129.713 157.743 118.756Z" fill="black"/>
<path d="M160.028 43.3253C157.767 48.5104 144.75 58.3038 139.002 59.5278C116.241 64.3742 101.661 53.5808 94.0279 41.3007C92.8904 39.4647 90.7917 34.4543 90.4178 33.1809C87.4566 23.1106 88.8182 7.88342 97.6522 0C94.9909 7.49543 94.6046 16.2025 96.0032 21.862C96.8533 25.2852 99.4387 31.2568 102.024 35.0169C106.735 41.8633 109.719 43.5246 115.766 47.1595C118.489 48.7961 121.414 50.1082 122.675 50.4698C128.408 52.1576 140.514 56.6055 160.028 43.3253Z" fill="black"/>
<path d="M122.763 93.7704C137.304 93.871 152.496 87.0739 161.49 77.5292C153.619 97.5058 130.833 110.349 100.276 106.262C74.6897 102.841 50.3164 77.0936 47.805 51.2952C45.969 32.5178 52.5156 21.3117 63.2967 7.72119C59.549 14.8304 58.1504 20.3135 57.7995 23.8125C53.7025 64.4254 90.2432 93.5588 122.763 93.7704Z" fill="black"/>
</g>
<defs>
<clipPath id="clip0">
<rect width="161.489" height="200" fill="white"/>
</clipPath>
</defs>
</svg>
