<svg width="72" height="100" viewBox="0 0 72 100" fill="none" xmlns="http://www.w3.org/2000/svg">
<path d="M17.4194 1.04967e-07C16.7576 0.0181819 16.4196 0.548977 16.2944 0.852273L13.2822 13.6364H10.4516C4.6815 13.6364 0 18.2174 0 23.8636V76.1364C0 81.7826 4.6815 86.381 10.4516 86.3636H13.2822L16.2944 99.1124C16.4082 99.6087 16.8994 99.9964 17.4194 100H47.6129C48.1329 100 48.6241 99.6088 48.7379 99.1124L51.75 86.3636H54.5807C60.3508 86.3636 65.0323 81.7826 65.0323 76.1364V44.3182H70.8387C71.4466 44.3181 71.9999 43.7768 72 43.1818V31.8182C71.9999 31.2232 71.4466 30.6819 70.8387 30.6818H65.0323V23.8636C65.0323 18.2174 60.3472 13.4363 54.5807 13.6364H51.75L48.7379 0.852273C48.6103 0.368637 48.1233 -0.000227168 47.6129 1.04967e-07H17.4194ZM18.3266 2.27273H46.7056L49.3911 13.6364H15.6412L18.3266 2.27273ZM10.4516 15.9091H14.008L15.0605 16.1577L15.1325 15.9091H49.8986L49.9706 16.1577L51.0231 15.9091H54.5795C59.1031 15.9091 62.7085 19.4372 62.7085 23.8636V76.1364C62.7085 80.5628 59.1031 84.0909 54.5795 84.0909H51.1682L49.9706 83.8068L49.8986 84.0909H15.1325L15.0605 83.8068L13.8629 84.0909H10.4516C5.92803 84.0909 2.32258 80.5628 2.32258 76.1364V23.8636C2.32258 19.4372 5.92803 15.9091 10.4516 15.9091ZM65.0323 32.9545H69.6774V42.0455H65.0323V32.9545ZM48.7017 40.3054C48.444 40.3327 48.1968 40.4472 48.0121 40.625L30.121 57.0312L16.984 47.3722C16.5084 46.9358 15.6477 47.0107 15.2582 47.522C14.8688 48.0335 15.0417 48.862 15.6049 49.1832L29.5404 59.4104C29.9703 59.7286 30.6319 59.6972 31.0282 59.34L49.6088 42.2946C50.3606 41.662 49.6843 40.1806 48.7017 40.3059V40.3054ZM15.6775 86.3636H49.3549L46.7056 97.7273H18.3266L15.6775 86.3636Z" fill="#9DE5FB"/>
</svg>
