<svg width="104" height="100" viewBox="0 0 104 100" fill="none" xmlns="http://www.w3.org/2000/svg">
<path d="M54.1519 77.6597L33.2192 70.3899C33.0653 70.3359 32.9354 70.2502 32.8355 70.1422L32.8335 70.144L16.7212 52.9024C16.5773 52.7478 16.4993 52.5579 16.4894 52.3679L15.0584 35.8208L9.50444 36.2379L1.46229 41.0442C1.1865 41.208 0.826757 41.236 0.514984 41.0851C0.0493232 40.8617 -0.134543 40.3272 0.105283 39.8933L4.63798 31.6831C4.66197 31.6384 4.69194 31.5956 4.72192 31.5565L10.05 24.3723C10.2239 24.1377 10.5197 23.985 10.8495 23.9906L19.4732 24.1656C19.6111 24.1675 19.741 24.1972 19.8589 24.2494C20.0228 24.2121 20.1987 24.214 20.3705 24.2661C20.4944 24.3034 20.6044 24.3611 20.6963 24.4337L20.6983 24.4319L34.9399 35.711L57.0278 0.439883C57.2936 0.017174 57.8752 -0.126212 58.3289 0.121455C58.5607 0.248081 58.7146 0.451056 58.7726 0.676377L64.4904 17.2402L102.213 7.19019C102.719 7.05612 103.244 7.32985 103.388 7.79912C103.47 8.06541 103.412 8.33728 103.254 8.5477L93.3254 21.8398L85.9328 33.2808L80.3628 44.5934C80.2829 44.7554 80.157 44.8858 80.0051 44.9733L66.473 52.9489C66.433 52.9731 66.391 52.9936 66.3471 53.0104L55.9906 57.8557L75.5843 87.3932C75.8601 87.8084 75.7222 88.3522 75.2766 88.6092C75.0867 88.719 74.8728 88.7581 74.667 88.7339V88.7358L68.4016 88.0319L68.2996 99.1229C68.2956 99.6108 67.8679 100.004 67.3443 100C66.9826 99.9981 66.6708 99.8063 66.5129 99.5288H66.5109L54.1539 77.6578L54.1519 77.6597ZM19.9728 32.158C19.783 32.1114 19.669 31.9308 19.719 31.752C19.769 31.5751 19.9628 31.469 20.1547 31.5155L28.4626 33.5639C28.6525 33.6104 28.7664 33.7911 28.7165 33.9698C28.6665 34.1467 28.4726 34.2529 28.2808 34.2063L19.9728 32.158ZM60.3274 18.1695C60.4873 18.0633 60.7092 18.0987 60.8231 18.2477C60.937 18.3966 60.899 18.6033 60.7391 18.7095L41.4792 31.5528C41.3193 31.6589 41.0974 31.6235 40.9835 31.4745C40.8696 31.3256 40.9076 31.1189 41.0675 31.0127L60.3274 18.1695ZM66.6508 86.572L51.32 61.377C52.3952 65.917 53.8541 70.9615 55.7028 76.6039L66.435 95.5978L66.5129 87.0971C66.5089 87.0431 66.5109 86.9872 66.5169 86.9314C66.5329 86.7992 66.5809 86.6781 66.6508 86.572ZM51.316 60.027L67.2284 86.1772C67.3383 86.1511 67.4542 86.1437 67.5722 86.1567L72.9323 86.7582L54.2878 58.6527L51.4719 59.9711C51.4219 59.9953 51.37 60.0139 51.316 60.0288V60.027ZM49.5593 38.7165L65.2259 51.5597L65.4857 51.4387L77.6968 44.2415L50.1648 36.0908C49.925 36.9362 49.7232 37.8096 49.5593 38.7165ZM64.5384 51.88L49.4294 39.4948C49.3954 39.7183 49.3634 39.9436 49.3334 40.1708C48.6899 45.1465 49.1196 51.0681 50.6485 58.379L64.5384 51.88ZM50.3547 35.4521L78.4802 43.7778L78.752 43.6177L84.0202 32.9177L51.334 32.8563C50.9623 33.6905 50.6365 34.5546 50.3567 35.4521H50.3547ZM51.6398 32.1952L84.3699 32.2567L90.9891 22.0111L52.9008 29.9048C52.4392 30.6459 52.0175 31.4075 51.6378 32.1952H51.6398ZM53.4145 29.1189L91.4967 21.2271L91.7006 20.9124C91.7146 20.8901 91.7286 20.8677 91.7446 20.8472L100.164 9.57561L64.3645 19.1136L61.9642 20.7113C61.9582 20.7169 61.9523 20.7206 61.9443 20.7262C58.3609 23.3202 55.5129 26.0277 53.4145 29.1171V29.1189ZM52.753 26.8452L36.5168 37.6569L50.6285 66.3117C47.6107 55.1779 46.5675 46.7479 47.4468 39.9622C48.1183 34.7743 49.895 30.5546 52.753 26.8452ZM60.7751 19.3277C60.8031 19.3072 60.8311 19.2905 60.859 19.2737L62.7617 18.0074C62.7497 17.9814 62.7397 17.9553 62.7297 17.9292L57.5914 3.04504L37.8258 34.6104L60.7511 19.3445L60.7751 19.3277ZM7.65778 35.2324L5.74118 33.5378L3.40288 37.7742L7.65778 35.2324ZM15.3882 34.0145L16.5793 32.4429L18.8077 25.9179L11.3171 25.7652L6.71847 31.9643L9.53442 34.454L15.3882 34.0145ZM18.6438 32.2194L31.4385 35.264L20.5484 26.6404L18.6438 32.2213V32.2194ZM34.1105 68.8107L53.0028 75.373L34.5122 37.8226L17.8324 33.8544L16.8991 35.0871L18.356 51.9545L34.1085 68.8107H34.1105Z" fill="#03dac6"/>
</svg>
