<svg width="100" height="100" viewBox="0 0 131 133" fill="none" xmlns="http://www.w3.org/2000/svg">
<path d="M68.9928 59.2303C64.9207 57.0386 59.9797 58.4125 57.8756 62.3218C55.7715 66.231 57.3459 71.1118 61.418 73.3036C65.4901 75.4953 70.4311 74.1214 72.5352 70.2121C74.6393 66.3029 73.0649 61.4221 68.9928 59.2303ZM62.4701 71.3489C59.5178 69.7599 58.3862 66.2518 59.9117 63.4176C61.4371 60.5835 64.9885 59.5959 67.9407 61.185C70.893 62.774 72.0246 66.2821 70.4991 69.1163C68.9737 71.9504 65.4224 72.938 62.4701 71.3489Z" fill="#03dac6"/>
<path d="M117.126 66.0178C116.761 58.8892 107.82 52.816 94.2814 49.1845C97.0238 36.0395 95.3172 25.7937 88.8019 22.2869C82.2865 18.7801 72.7948 22.9985 63.386 32.4293C52.8461 23.2271 42.8525 19.1085 36.7016 22.7303C34.3754 24.1251 32.6497 26.5994 31.886 29.9697C30.7405 35.0251 31.5191 41.8724 34.0283 49.6511C26.2555 51.8957 20.1114 55.0169 16.4209 58.7025C14.0284 61.1961 12.8643 63.8466 13.0305 66.709C13.2255 71.2255 17.0142 75.4074 23.1223 78.6951C26.5836 80.5581 30.8169 82.2064 35.7731 83.4876C33.0833 96.5348 34.8916 106.835 41.3052 110.287C47.8206 113.794 57.3123 109.576 66.7211 100.145C70.4708 103.424 74.2273 106.202 77.6886 108.065C83.8985 111.407 89.3739 112.212 93.251 109.887C95.5773 108.492 97.303 106.018 98.0666 102.648C99.2121 97.5921 98.4336 90.7448 95.9244 82.9661C103.697 80.7215 109.841 77.6003 113.532 73.9147C116.079 71.3782 117.243 68.7276 117.126 66.0178ZM87.7498 24.2415C93.1454 27.1456 94.5041 36.574 91.9823 48.5772C87.0754 47.4486 81.6526 46.5466 75.9669 46.1332C72.3886 41.5603 68.6491 37.5309 65.1064 34.1115C73.6838 25.4936 82.3543 21.3374 87.7498 24.2415ZM81.9774 75.4593C80.2941 78.5866 78.6142 81.4638 76.7307 84.2313C73.2914 84.5229 69.7503 84.7596 66.0582 84.7891C62.3661 84.8185 58.7792 84.6525 55.3467 84.4436C53.18 81.6388 51.1678 78.7911 49.159 75.6932C47.1501 72.5953 45.3449 69.6069 43.7467 66.4779C45.0193 63.3816 46.5482 60.2972 48.1789 57.2675C49.8622 54.1402 51.5421 51.263 53.4255 48.4955C56.8648 48.2039 60.406 47.9672 64.0981 47.9377C67.7902 47.9083 71.3771 48.0743 74.8096 48.2832C76.9762 51.088 78.9885 53.9357 80.9973 57.0336C83.0062 60.1315 84.8114 63.1199 86.4096 66.2489C85.1369 69.3452 83.6607 72.3319 81.9774 75.4593ZM87.7584 68.8655C89.9047 73.1718 91.6929 77.4114 93.1757 81.4866C89.0593 82.5482 84.5358 83.3905 79.6576 83.916C81.1763 81.5823 82.6458 79.0961 84.0134 76.5551C85.3811 74.0141 86.647 71.4184 87.7584 68.8655ZM75.0577 86.6079C72.3394 90.4386 69.5226 93.9643 66.7127 96.9894C63.5738 94.0395 60.4418 90.5891 57.2113 86.8337C60.1314 87.0189 63.1041 87.1064 66.1294 87.0962C69.2073 86.9882 72.1308 86.9232 75.0577 86.6079ZM52.3248 84.2035C47.4602 83.728 42.8061 82.8615 38.6152 81.8662C39.5926 77.8548 40.8823 73.5072 42.6844 69.1833C44.0858 71.7022 45.5891 74.2759 47.2467 76.8067C48.8517 79.4352 50.5619 81.8682 52.3248 84.2035ZM42.3979 63.8613C40.2516 59.555 38.4634 55.3154 36.9806 51.2402C41.0969 50.1786 45.6205 49.3363 50.4986 48.8108C48.98 51.1445 47.5105 53.6307 46.1428 56.1717C44.7752 58.7127 43.5093 61.3084 42.3979 63.8613ZM55.0986 46.1189C57.8169 42.2882 60.6336 38.7625 63.4436 35.7374C66.5824 38.6873 69.7145 42.1377 72.945 45.8931C70.0249 45.7079 67.0522 45.6204 64.0269 45.6306C60.949 45.7386 58.0255 45.8036 55.0986 46.1189ZM82.9096 55.9201C81.252 53.3893 79.5417 50.9563 77.7789 48.621C82.6434 49.0966 87.2976 49.963 91.4885 50.9583C90.511 54.9698 89.2214 59.3174 87.4193 63.6412C86.123 60.9268 84.5672 58.4509 82.9096 55.9201ZM38.0081 24.6939C41.1098 22.8341 45.8165 23.6029 51.1103 26.4522C54.4697 28.2604 58.0752 30.8312 61.6705 34.1528C58.3414 37.6548 55.1072 41.712 52.0699 46.3794C46.3705 46.967 41.0258 47.8715 36.2918 49.1048C33.9828 41.6859 33.1482 35.1866 34.1851 30.5769C34.8401 27.6524 36.1484 25.7096 38.0081 24.6939ZM15.389 66.718C15.2652 64.5087 16.2681 62.4015 18.1939 60.287C21.4705 56.8828 27.4075 53.9022 34.8189 51.8413C36.3967 56.4718 38.5854 61.4311 41.2338 66.5119C39.1127 71.6724 37.5074 76.6063 36.3161 81.259C24.003 78.0347 15.6161 72.6383 15.389 66.718ZM42.4065 108.485C37.0109 105.581 35.6522 96.1528 38.1739 84.1496C43.0809 85.2782 48.5036 86.1802 54.1894 86.5936C57.7677 91.1665 61.5072 95.1959 65.1517 98.6701C56.4725 107.233 47.802 111.389 42.4065 108.485ZM92.1482 108.033C86.9798 111.049 77.9584 107.076 68.4858 98.574C71.8149 95.072 75.049 91.0148 78.0864 86.3474C83.7858 85.7598 89.1305 84.8553 93.8645 83.622C96.1735 91.0409 97.0081 97.5402 95.9712 102.15C95.3161 105.074 94.0079 107.017 92.1482 108.033ZM112.015 72.342C108.738 75.7463 102.801 78.7268 95.39 80.7878C93.8121 76.1572 91.6235 71.1979 88.9751 66.1172C91.0962 60.9567 92.7015 56.0227 93.8928 51.3701C106.255 54.7469 114.593 59.9908 114.82 65.911C114.944 68.1204 114.043 70.2823 112.015 72.342Z" fill="#03dac6"/>
</svg>
