<svg width="150" height="100" viewBox="0 0 426 426" fill="none" xmlns="http://www.w3.org/2000/svg">
<g clip-path="url(#clip0)">
<path d="M256.097 203.177L279.111 224.471L268.349 238.812L254.675 224.157L236.559 204.723L260.27 181.003L285.231 205.101L290.103 209.81L285.6 215.811L263.399 195.274C261.231 193.258 257.819 193.377 255.814 195.575C253.808 197.752 253.93 201.162 256.097 203.177Z" fill="#EA1E63"/>
<path d="M252.837 159.098C251.66 169.392 246.49 179.578 238.291 187.781C228.885 197.182 216.876 202.573 205.33 202.573C197.169 202.573 190.148 199.869 185.027 194.746C180.479 190.201 177.806 184.035 177.302 176.922C177.247 176.182 177.042 175.46 176.694 174.798C160.373 143.832 140.609 133.404 128.176 129.923C145.93 114.729 164.523 107.035 183.562 107.035C219.116 107.035 244.873 134.106 245.25 134.515C251.274 140.542 253.966 149.271 252.837 159.098Z" fill="#EA1E63"/>
<path d="M0 57.088C0 54.734 1.919 52.815 4.273 52.815H279.321C281.674 52.815 283.593 54.729 283.593 57.088V188.565L263.949 169.597C263.356 169.022 262.648 168.655 261.902 168.408C262.648 165.736 263.214 163.038 263.52 160.324C265.031 147.164 261.24 135.3 252.99 127.061C251.824 125.809 223.907 96.291 183.563 96.291C158.654 96.291 134.747 107.575 112.497 129.819C110.912 131.404 110.652 133.812 111.589 135.857C112.523 137.898 114.815 139.145 117.043 138.972C121.786 138.972 146.293 140.906 166.677 178.86C167.574 188.105 171.278 196.205 177.427 202.348C184.506 209.427 194.417 213.322 205.325 213.322C205.325 213.322 205.325 213.322 205.33 213.322C212.209 213.322 219.164 211.79 225.829 208.977L235.708 219.57H0V57.088Z" fill="#EA1E63"/>
<path d="M181.7 320.483L102.01 320.63C101.941 320.568 101.671 320.189 101.671 319.495V311.442H181.937V319.495C181.931 319.979 181.802 320.316 181.7 320.483Z" fill="#EA1E63"/>
<path d="M181.931 275.758V300.694H101.665V275.758C101.665 275.202 101.849 274.844 101.665 274.771H181.679C181.787 274.94 181.931 275.223 181.931 275.758Z" fill="#EA1E63"/>
<path d="M182.102 264.031H101.494H4.281C1.927 264.031 0.00500488 262.12 0.00500488 259.759V230.32H245.746L277.179 264.026H182.103V264.031H182.102Z" fill="#EA1E63"/>
<path d="M418.913 366.1C414.462 370.553 408.447 373.114 402.415 373.114C396.992 373.114 391.994 371.089 388.436 367.55L290.45 262.499C290.445 262.488 290.445 262.478 290.439 262.478L275.805 246.793L287.06 231.801L362.462 301.575C363.484 302.53 364.809 303.003 366.115 303.003C367.559 303.003 368.992 302.437 370.052 301.281C372.068 299.107 371.948 295.706 369.753 293.69L293.526 223.16L297.899 217.344L420.237 335.486C428.319 343.559 427.721 357.303 418.913 366.1Z" fill="#EA1E63"/>
</g>
<defs>
<clipPath id="clip0">
<rect width="425.929" height="425.929" fill="white"/>
</clipPath>
</defs>
</svg>
