<svg width="50" height="50" viewBox="0 0 200 200" fill="none" xmlns="http://www.w3.org/2000/svg">
<g clip-path="url(#clip0)">
<path d="M200 100C200 132.155 184.82 160.767 161.237 179.061C144.318 192.188 123.073 200 100 200C76.9266 200 55.6816 192.188 38.7633 179.061C15.1797 160.767 0 132.155 0 100C0 44.7715 44.7715 0 100 0C155.229 0 200 44.7715 200 100Z" fill="#F2F2F2"/>
<path d="M172.653 46.6696L161.237 179.061C144.318 192.188 123.073 200 100 200C76.9266 200 55.6816 192.188 38.7633 179.061L27.3469 46.6696H172.653Z" fill="#006BC0"/>
<path d="M99.9988 59.1165V197.381L147.761 183.897L158.416 59.1165H99.9988Z" fill="#0096DC"/>
<path d="M142.202 113.198H107.754L143.75 94.8789L145.305 76.4633H54.6926L56.2781 95.2386H92.6519L57.752 112.689L59.3758 131.923H121.631L119.591 154.83L99.9988 160.137L79.5906 154.422L79.0805 140.137H60.0695L62.4477 168.3L99.9988 178.912L137.55 168.3L142.203 113.195L142.202 113.198Z" fill="white"/>
<path d="M64.5906 26.2594V13.198H83.366V6.12341H57.7879V33.334H83.366V26.2594H64.5906Z" fill="#222123"/>
<path d="M94.3523 16.7695V13.5039H113.026V13.198V6.12341H87.4476V22.9937H105.781V26.2594H87.4476V33.334H113.026V26.2594V16.7695H94.3523Z" fill="#222123"/>
<path d="M123.536 16.7695V13.5039H142.209V13.198V6.12341H116.631V22.9937H134.964V26.2594H116.631V33.334H142.209V26.2594V16.7695H123.536Z" fill="#222123"/>
</g>
<defs>
<clipPath id="clip0">
<rect width="200" height="200" fill="white"/>
</clipPath>
</defs>
</svg>
