<svg width="50" height="50" viewBox="0 0 200 200" fill="none" xmlns="http://www.w3.org/2000/svg">
<path d="M0 100C0 44.7717 44.7717 0 100 0C155.228 0 200 44.7717 200 100C200 155.228 155.228 200 100 200C44.7717 200 0 155.228 0 100Z" fill="#333333"/>
<path d="M80 160C91.0457 160 100 151.046 100 140V120H80C68.9543 120 60 128.954 60 140C60 151.046 68.9543 160 80 160Z" fill="#0ACF83"/>
<path d="M60 100C60 88.9543 68.9543 80 80 80H100V120H80C68.9543 120 60 111.046 60 100Z" fill="#A259FF"/>
<path d="M60 60C60 48.9543 68.9543 40 80 40H100V80H80C68.9543 80 60 71.0457 60 60Z" fill="#F24E1E"/>
<path d="M100 40H120C131.046 40 140 48.9543 140 60C140 71.0457 131.046 80 120 80H100V40Z" fill="#FF7262"/>
<path d="M140 100C140 111.046 131.046 120 120 120C108.954 120 100 111.046 100 100C100 88.9543 108.954 80 120 80C131.046 80 140 88.9543 140 100Z" fill="#1ABCFE"/>
</svg>
